<?xml version="1.0" encoding="UTF-8" standalone="no"?>
<!-- Created with Inkscape (http://www.inkscape.org/) -->

<svg
   xmlns:dc="http://purl.org/dc/elements/1.1/"
   xmlns:cc="http://creativecommons.org/ns#"
   xmlns:rdf="http://www.w3.org/1999/02/22-rdf-syntax-ns#"
   xmlns:svg="http://www.w3.org/2000/svg"
   xmlns="http://www.w3.org/2000/svg"
   xmlns:sodipodi="http://sodipodi.sourceforge.net/DTD/sodipodi-0.dtd"
   xmlns:inkscape="http://www.inkscape.org/namespaces/inkscape"
   width="210mm"
   height="297mm"
   viewBox="0 0 744.09448819 1052.3622047"
   id="svg2"
   version="1.1"
   inkscape:version="0.91 r13725"
   sodipodi:docname="drawing-1.svg">
  <defs
     id="defs4" />
  <sodipodi:namedview
     id="base"
     pagecolor="#ffffff"
     bordercolor="#666666"
     borderopacity="1.0"
     inkscape:pageopacity="0.0"
     inkscape:pageshadow="2"
     inkscape:zoom="0.35"
     inkscape:cx="812.46918"
     inkscape:cy="520"
     inkscape:document-units="px"
     inkscape:current-layer="layer1"
     showgrid="false"
     inkscape:window-width="1440"
     inkscape:window-height="799"
     inkscape:window-x="0"
     inkscape:window-y="1"
     inkscape:window-maximized="1"
     showguides="true"
     inkscape:guide-bbox="true" />
  <metadata
     id="metadata7">
    <rdf:RDF>
      <cc:Work
         rdf:about="">
        <dc:format>image/svg+xml</dc:format>
        <dc:type
           rdf:resource="http://purl.org/dc/dcmitype/StillImage" />
        <dc:title />
      </cc:Work>
    </rdf:RDF>
  </metadata>
  <g
     inkscape:label="Layer 1"
     inkscape:groupmode="layer"
     id="layer1">
    <ellipse
       style="opacity:0.47600002;fill:#ff7f2a;fill-opacity:0.90445856;stroke:none;stroke-opacity:1"
       id="path4220"
       cx="367.14285"
       cy="517.79077"
       rx="361.42856"
       ry="337.14285" />
    <path
       style="opacity:0.47600002;fill:#ff2d25;fill-opacity:1;stroke:none;stroke-opacity:1"
       id="path4188"
       d="m 72.548231,642.50307 c 2.197366,-10.73137 5.881718,-21.15676 9.063823,-31.64245 5.239447,-14.29668 9.143251,-29.00217 12.938887,-43.72961 5.16961,-18.68787 8.366759,-37.85328 11.213439,-57.01113 3.40392,-20.17511 3.60571,-40.65227 4.82443,-61.01798 1.27623,-18.62456 2.02803,-37.27733 2.31235,-55.94189 1.01734,-13.81588 -2.28251,-27.18426 -6.35264,-40.25203 -2.47487,-7.45541 -5.2025,-14.86396 -8.795669,-21.86111 -0.9945,-2.23912 -0.54238,-1.18334 -1.3663,-3.16305 0,0 37.184139,-20.63126 37.184139,-20.63126 l 0,0 c 0.59639,1.87384 0.25786,0.87649 1.03319,2.986 3.03807,7.49783 6.04568,15.00529 8.40601,22.75166 3.80586,13.58483 7.48268,27.40513 6.41649,41.66481 -0.5749,18.77484 -1.3348,37.536 -2.65457,56.27585 -1.16557,20.46085 -1.61642,41.00467 -4.52964,61.32263 -3.25018,19.13237 -5.74279,38.44382 -10.77563,57.22354 -3.76126,14.66842 -7.12861,29.48362 -12.5083,43.67464 -2.83177,10.05254 -6.04787,19.98859 -8.64933,30.11135 0,0 -37.760679,19.24003 -37.760679,19.24003 z"
       inkscape:connector-curvature="0" />
    <path
       style="opacity:0.47600002;fill:#ff7325;fill-opacity:1;stroke:none;stroke-opacity:1"
       id="path4190"
       d="m 133.16605,307.36421 c -0.83408,13.11647 5.20059,25.41027 10.04809,37.25268 7.71192,17.70227 16.14257,35.06794 24.00353,52.70168 6.12001,13.97085 13.04797,27.54673 19.30048,41.45507 5.65572,12.03546 10.84232,24.27134 16.33175,36.37905 4.36689,10.5081 9.19431,20.78983 14.33307,30.93767 2.47617,5.32896 6.28659,9.86234 9.20871,14.91229 1.69802,1.92136 3.20548,3.92204 4.69882,6.01468 1.81172,3.04098 4.75992,5.09955 6.7826,7.87962 0.31163,0.3457 0.62327,0.6914 0.9349,1.0371 0,0 -36.44402,21.90055 -36.44402,21.90055 l 0,0 c -0.31267,-0.39746 -0.62533,-0.79492 -0.938,-1.19239 -2.33114,-2.59965 -4.84936,-5.04365 -6.84369,-7.94299 -1.68255,-2.1101 -3.4285,-4.16343 -4.88936,-6.43791 -3.12038,-5.06044 -5.92209,-10.31177 -8.77075,-15.52727 -5.0485,-10.25401 -9.69006,-20.70403 -14.08451,-31.25421 -5.50877,-12.10906 -10.6246,-24.39915 -16.20582,-36.48266 -6.17452,-13.9624 -13.12611,-27.55812 -18.93434,-41.68775 -7.67063,-17.73335 -15.93785,-35.19085 -23.96522,-52.76321 -5.40575,-12.04515 -11.625579,-24.54346 -12.326919,-37.94198 0,0 37.760679,-19.24002 37.760679,-19.24002 z"
       inkscape:connector-curvature="0" />
    <path
       style="opacity:0.47600002;fill:#ff0b12;fill-opacity:1;stroke:none;stroke-opacity:1"
       id="path4192"
       d="m 204.08313,555.70932 c 0.66647,-20.05014 3.48645,-39.9373 7.35362,-59.59507 3.89652,-16.8761 7.95236,-33.82935 13.33135,-50.31201 3.13461,-9.6053 5.81433,-15.61234 9.66607,-24.97502 8.36715,-19.14821 18.13204,-37.63801 28.82199,-55.58007 5.63881,-8.08921 10.04854,-17.01355 15.93234,-24.92658 1.59246,-1.41418 2.27749,-3.72328 3.63803,-5.28067 0.55074,-0.63042 1.35317,-0.99128 1.97165,-1.55539 2.71653,-2.48694 4.63277,-5.63895 7.02756,-8.39895 2.26247,-1.64741 3.08417,-5.59639 5.47163,-6.95859 19.5162,5.78255 47.36561,-31.60209 36.28192,-11.78399 -5.72512,10.31262 -9.48655,21.34152 -12.58585,32.67716 -4.10002,16.81177 -4.90757,34.14652 -5.47931,51.36743 -0.3834,19.68009 -0.42087,39.36521 -0.47748,59.04847 -0.63284,23.52802 1.97775,46.93916 4.46458,70.28987 1.73129,25.22855 6.67066,50.03711 11.86655,74.7335 5.19502,24.28448 13.74727,47.3871 24.88437,69.51453 10.07314,20.3803 23.11604,39.02353 36.19187,57.54071 10.43381,14.33682 21.669,26.62819 34.82981,38.44867 9.83327,8.50603 20.13502,16.4211 31.58372,22.62422 7.25257,4.00719 15.07874,6.8482 22.78004,9.85885 2.0693,0.87516 4.26001,1.16771 6.43945,1.58426 0,0 -35.04843,24.23274 -35.04843,24.23274 l 0,0 c -2.21979,-0.6456 -4.39651,-1.4062 -6.50264,-2.3677 -7.5725,-3.3709 -15.32924,-6.4104 -22.47234,-10.6638 -11.40596,-6.72545 -21.85537,-14.74928 -31.61722,-23.69439 -12.98536,-11.97543 -24.7784,-24.96486 -34.95334,-39.44999 -12.85875,-18.87192 -25.77027,-37.82631 -35.92808,-58.33169 -5.26153,-10.30183 -6.355,-11.92036 -10.73917,-22.55874 -6.36782,-15.45177 -10.43188,-31.75503 -14.58706,-47.90499 -5.22231,-24.78518 -10.33635,-49.68962 -12.24936,-74.99255 -2.46539,-23.44182 -5.24923,-46.93573 -4.87222,-70.55095 -0.10526,-19.65893 -0.34273,-39.32141 0.0621,-58.97844 0.45933,-17.42926 1.08179,-34.94907 4.81281,-52.04958 1.6709,-6.942 3.35876,-13.96367 5.75774,-20.70299 2.7432,-7.70631 1.04021,-1.87957 4.16653,-8.8738 0.50196,-1.123 0.81088,-2.32269 1.21632,-3.48403 0.0995,-0.20496 2.16013,-4.45579 2.17004,-4.46098 3.43627,-1.80144 41.51236,-33.88339 39.45559,-17.36114 -1.33051,1.90375 0.55435,-0.459 -1.62797,1.02807 -1.84115,1.25458 -2.60445,4.0983 -4.31904,5.50372 -2.11075,3.01351 -4.63699,5.73471 -6.76431,8.75067 -0.5674,0.68606 -0.89548,1.62583 -1.64769,2.10208 -0.30513,0.19319 -0.76442,-0.0294 -1.07146,0.16073 -1.4586,0.90328 -1.95725,3.34823 -3.39078,4.27714 -1.33331,1.71176 -2.85251,3.27634 -4.14261,5.0209 -4.72698,6.39215 -8.12057,13.77981 -13.11237,20.01399 -11.153,17.89922 -21.31331,36.34438 -30.17077,55.50224 -3.05377,7.34902 -7.19681,16.93453 -9.72485,24.52077 -5.44095,16.3274 -9.57302,33.16856 -13.33407,49.9429 -3.91757,19.00424 -6.85115,38.45459 -5.81127,57.9168 0,0 -37.54802,19.13168 -37.54802,19.13168 z"
       inkscape:connector-curvature="0" />
    <path
       style="opacity:0.47600002;fill:#ec5424;fill-opacity:0.90445856;stroke:none;stroke-opacity:1"
       id="path4210"
       d="m 520.55394,381.78827 c -4.99071,-6.83776 -11.40935,-12.49069 -17.79093,-18.00714 -6.3541,-4.30945 -12.65275,-8.60126 -19.79684,-11.48752 -5.18758,-1.62481 -10.58372,-2.06401 -15.98411,-2.15261 -3.91151,-0.0391 -7.82199,0.0713 -11.73338,0.0803 -12.87917,7.04451 -31.63471,17.46745 27.79237,-15.93308 1.00006,-0.56208 -1.90622,1.27839 -2.82857,1.96054 -0.98169,0.72603 -1.92069,1.50807 -2.88103,2.26211 -6.56016,4.60772 -12.15865,10.16052 -17.46617,16.12632 -6.27359,7.28009 -10.83985,15.85196 -15.38986,24.26956 -5.2799,8.70136 -9.05864,18.24664 -12.06259,27.94498 -2.82492,9.46514 -4.10108,19.24272 -4.8145,29.06124 -0.44115,7.78425 -0.33737,15.57737 -0.36208,23.36874 -0.58843,6.54541 0.62621,12.42793 3.04585,18.4489 1.26978,5.03297 4.63313,8.57969 7.60016,12.58412 1.57834,1.56339 4.40121,1.3996 6.20247,0.23702 14.59129,-4.03252 3.32197,-1.079 -32.73263,18.76968 -0.77159,0.42477 1.51453,-0.90776 2.21102,-1.44692 2.63894,-2.04284 4.89164,-4.65968 7.18303,-7.0649 6.135,-6.74221 13.52619,-11.93914 20.81715,-17.29711 16.76929,-12.89278 35.68291,-22.5875 53.90093,-33.20688 6.515,-3.45237 13.13636,-6.68794 19.53868,-10.39958 9.31571,-4.88731 18.59854,-9.82104 27.84156,-14.84595 -69.86798,41.59633 -4.82374,0.29896 19.68998,-10.35919 2.08649,-0.90718 7.54666,-2.70487 9.80221,-3.46688 8.52478,-2.38631 17.13422,-4.31813 25.95439,-5.19713 4.60707,0.38284 10.11996,-1.4335 14.67164,-0.67998 2.18248,0.3613 3.9271,1.65844 5.75399,2.76223 7.88497,7.80453 10.07968,18.86446 11.7872,29.41409 2.1899,18.88369 2.03936,37.89269 -0.39711,56.72125 -3.78267,21.28426 -10.69103,41.86299 -18.38277,62.01498 -6.01059,16.11706 -13.52154,31.5814 -21.58924,46.75475 -6.58175,12.38609 -13.65929,24.55942 -21.51915,36.18074 -6.13715,9.19396 -13.3603,17.54082 -21.22344,25.28307 -13.75408,11.86866 -30.41536,19.00054 -46.40493,27.89683 -3.68842,2.05217 -7.76434,2.58029 -11.85683,3.19807 -7.61883,0.66687 -15.27572,0.53001 -22.91379,0.43793 -8.02391,0.51278 -15.73647,-1.35033 -23.48997,-3.09348 -10.28819,-3.16374 -18.41436,-9.42997 -26.16872,-16.67062 -7.17912,-7.93191 -13.51688,-16.6165 -18.83237,-25.90122 -2.8093,-3.88712 -4.93781,-8.13833 -7.20448,-12.34571 -0.60564,-2.39187 -1.47546,-4.65711 -2.53731,-6.9002 -2.219,-6.44134 -4.45871,-12.88426 -6.80742,-19.28295 -2.01163,-5.27224 -3.33898,-10.85514 -6.2222,-15.75388 -1.54867,-1.91832 -2.02935,-4.34838 -2.39134,-6.71887 -0.0755,-2.71577 -0.18586,-5.43074 -0.12287,-8.14779 -0.0742,-1.76731 -0.0577,-3.54006 0.0144,-5.30652 0.30857,-4.04954 -0.21277,-7.99387 -0.96004,-11.96517 -0.95637,-3.88238 -0.93931,-7.93317 -1.81355,-11.82274 -0.70348,-1.53158 -0.58289,-2.13732 -2.06886,-2.12523 0,0 35.57276,-23.55925 35.57276,-23.55925 l 0,0 c 1.88416,1.35479 2.97777,3.08769 3.78274,5.25475 1.40415,3.93406 0.69581,8.33703 1.80821,12.38914 0.7561,4.15329 1.89504,8.24697 1.62238,12.50263 0.0694,1.77635 0.0689,3.56001 -0.037,5.33565 0.0336,2.57346 -0.13043,5.14275 0.008,7.71542 0.0745,1.9363 0.26152,3.72754 1.43452,5.3621 2.54526,5.31849 4.1662,10.89687 6.01473,16.48339 2.36661,6.19265 4.59965,12.43416 7.0495,18.5917 1.18075,2.17757 2.41413,4.51523 2.7397,6.95164 1.75725,4.36167 3.84593,8.52684 6.39439,12.48944 4.81027,9.05533 10.9175,17.39837 17.89293,24.90942 7.35837,6.73909 15.3902,12.21955 25.21748,14.64284 7.626,1.61146 15.28421,2.68203 23.10871,2.30619 7.46398,0.0435 14.99545,0.23164 22.3725,-1.09599 3.52028,-0.86266 3.92521,-0.81392 7.32484,-2.26264 1.29524,-0.55196 5.01821,-2.54649 3.80951,-1.82443 -58.91804,35.1969 -37.01768,22.46368 -24.9442,14.13475 8.26917,-7.24197 15.60138,-15.61016 21.85041,-24.64986 8.5012,-11.12704 15.15351,-23.67881 22.05759,-35.83121 8.23051,-15.16007 16.05561,-30.47936 22.35741,-46.55478 7.83738,-19.87462 14.79508,-40.19804 18.91249,-61.20279 2.49868,-18.35352 2.45193,-36.80075 0.0617,-55.18697 -1.54928,-8.98871 -3.07883,-19.47455 -10.5708,-25.58613 -5.92724,-2.27028 -12.61815,-0.48432 -18.78067,-0.21629 -8.56909,1.22036 -17.01369,3.08717 -25.2421,5.80631 -4.8557,1.78989 -9.47192,3.81893 -14.09524,6.14851 -1.65367,0.83325 -6.53906,3.47298 -4.9471,2.52716 11.53594,-6.85382 83.37489,-48.15158 -9.89567,5.5506 -9.30858,5.04322 -18.68532,9.95973 -27.98517,15.01879 -6.61304,3.53719 -13.20968,7.09016 -19.82521,10.61774 63.5369,-37.34814 31.44752,-18.8727 17.69132,-8.73398 -6.93354,5.59168 -14.75096,9.96363 -20.86188,16.58543 -13.37391,14.50302 -27.29615,28.7919 -49.31316,31.56056 -3.44643,-0.26255 -6.67537,-1.23514 -8.77782,-4.22315 -3.20229,-4.24939 -6.34807,-8.42637 -7.86443,-13.64006 -2.75841,-6.45125 -4.44672,-12.84518 -3.75932,-19.94227 -0.0333,-7.91314 0.0489,-15.83803 0.48784,-23.73928 0.57981,-10.08581 1.79204,-20.10873 4.50531,-29.87164 2.50642,-10.00172 6.56169,-19.8377 11.60211,-28.81922 4.84922,-8.42657 9.03904,-17.25215 14.87201,-25.09614 5.44512,-5.82178 10.17429,-12.38933 17.11463,-16.60918 13.72031,-12.03613 23.46768,-15.36848 44.11255,-27.23077 1.33934,-0.76957 3.49459,-1.49295 5.05564,-1.70512 0.65828,-0.0895 1.3286,-0.0134 1.9929,-0.0201 3.95307,-0.0485 7.90895,-0.0596 11.8584,0.14575 5.67595,0.51664 11.31167,1.37211 16.6167,3.58484 7.22119,3.47635 13.80491,7.92513 20.23923,12.68963 6.46641,5.64854 12.64669,11.62577 18.45843,17.941 0,0 -36.158,22.15765 -36.158,22.15765 z"
       inkscape:connector-curvature="0" />
  </g>
</svg>
